<?xml version="1.0" encoding="utf-8"?>
<!-- Generator: Adobe Illustrator 25.2.0, SVG Export Plug-In . SVG Version: 6.00 Build 0)  -->
<svg version="1.1" id="Layer_1" xmlns="http://www.w3.org/2000/svg" xmlns:xlink="http://www.w3.org/1999/xlink" x="0px" y="0px"
	 viewBox="0 0 500 500" style="enable-background:new 0 0 500 500;" xml:space="preserve">
<style type="text/css">
	.st0{fill:#72CCA7;}
	.st1{fill:#FFFFFF;}
</style>
<g>
	<path class="st0" d="M474.76,241.95c0,113.91-92.78,196.21-206.25,206.25c-65,5.75-233.33,26.86-243,10.75
		c-12-20,72.48-54.65,47-213c-14-87,74.62-210.25,196-210.25C382.42,35.7,474.76,128.04,474.76,241.95z"/>
</g>
<g>
	<path class="st1" d="M305.77,380.05h-82.46c-4.44,0-8.04-3.6-8.04-8.04v0c0-4.44,3.6-8.04,8.04-8.04h82.46
		c4.44,0,8.04,3.6,8.04,8.04v0C313.81,376.45,310.21,380.05,305.77,380.05z"/>
	<path class="st1" d="M272.58,319.8c0,0,0,33.09,0,44.12c0,5.73-3.6,10.38-8.04,10.38h0c-4.44,0-8.04-4.65-8.04-10.38V319.8
		c0-5.73,3.6-5.19,8.04-5.19l0,0C268.98,314.61,272.58,314.07,272.58,319.8z"/>
	<path class="st1" d="M333.29,225.06v26.69c0,37.19-29.15,68.43-66.32,69.7c-19.95,0.68-38.08-7.13-51.03-20.1
		c-12.45-12.42-20.14-29.6-20.14-48.59v-27.7c0-0.01,0.01-0.02,0.02-0.02h16.17c0.01,0,0.02,0.01,0.02,0.02v28.96
		c0,14.51,5.88,27.65,15.39,37.16c9.84,9.84,23.57,15.79,38.69,15.36c28.07-0.8,51.01-25.35,51.01-53.44v-28.04
		c0-0.01,0.01-0.02,0.02-0.02h16.14C333.28,225.04,333.29,225.05,333.29,225.06z"/>
	<g>
		<path class="st1" d="M303.59,159.59l0,91.65c0,24.75-22.46,44.02-46.73,39.18c-7.7-1.54-14.58-5.34-19.92-10.68
			c-7.06-7.06-11.43-16.82-11.43-27.61l0-91.94c0-20.65,15.81-38.22,36.41-39.56c11.82-0.77,22.6,3.71,30.24,11.35
			C299.22,139.04,303.59,148.8,303.59,159.59z"/>
	</g>
</g>
</svg>
